<?xml version="1.0" encoding="UTF-8" standalone="no"?>
<!-- Created with Inkscape (http://www.inkscape.org/) -->

<svg
   xmlns:dc="http://purl.org/dc/elements/1.1/"
   xmlns:cc="http://creativecommons.org/ns#"
   xmlns:rdf="http://www.w3.org/1999/02/22-rdf-syntax-ns#"
   xmlns:svg="http://www.w3.org/2000/svg"
   xmlns="http://www.w3.org/2000/svg"
   xmlns:sodipodi="http://sodipodi.sourceforge.net/DTD/sodipodi-0.dtd"
   xmlns:inkscape="http://www.inkscape.org/namespaces/inkscape"
   width="720"
   height="720"
   viewBox="0 0 190.5 190.50001"
   version="1.1"
   id="svg8"
   inkscape:version="0.92.3 (2405546, 2018-03-11)"
   sodipodi:docname="1.svg">
  <defs
     id="defs2" />
  <sodipodi:namedview
     id="base"
     pagecolor="#ffffff"
     bordercolor="#666666"
     borderopacity="1.0"
     inkscape:pageopacity="0.0"
     inkscape:pageshadow="2"
     inkscape:zoom="0.7"
     inkscape:cx="324.14134"
     inkscape:cy="288.40592"
     inkscape:document-units="mm"
     inkscape:current-layer="layer1"
     showgrid="false"
     units="px"
     inkscape:window-width="1920"
     inkscape:window-height="1017"
     inkscape:window-x="-8"
     inkscape:window-y="-8"
     inkscape:window-maximized="1" />
  <metadata
     id="metadata5">
    <rdf:RDF>
      <cc:Work
         rdf:about="">
        <dc:format>image/svg+xml</dc:format>
        <dc:type
           rdf:resource="http://purl.org/dc/dcmitype/StillImage" />
        <dc:title></dc:title>
      </cc:Work>
    </rdf:RDF>
  </metadata>
  <g
     inkscape:label="Capa 1"
     inkscape:groupmode="layer"
     id="layer1"
     transform="translate(0,-106.49998)">
    <g
       transform="translate(-1.9643648e-6,1.7442646e-6)"
       id="layer1-3"
       inkscape:label="Capa 1"
       style="fill:#ffffff">
      <path
         inkscape:connector-curvature="0"
         id="path826"
         d="m 24.257662,296.54412 c -1.207451,-0.44287 -3.064683,-2.00552 -7.28023,-6.12545 -3.112589,-3.04201 -6.150795,-6.27299 -6.751548,-7.17998 -1.9505329,-2.94476 -1.8688579,-6.86925 0.199393,-9.58086 0.502655,-0.65901 7.207869,-6.84891 14.900491,-13.75535 l 13.98658,-12.55715 0.10543,-18.27479 0.105297,-18.27479 0.870577,-0.70472 c 1.128788,-0.91374 2.807198,-0.899 3.739025,0.0328 0.714123,0.71412 0.737534,1.22922 0.737534,16.2258 0,8.51855 0.129211,15.48826 0.286973,15.48826 0.19922,0 21.626157,-18.98322 24.370502,-21.59109 0.0739,-0.0703 -0.61639,-1.67138 -1.534028,-3.55808 -10.098764,-20.76346 -3.128865,-45.84149 16.251688,-58.47437 15.972344,-10.4113 37.324664,-9.64563 52.668634,1.88863 3.19963,2.4052 8.3391,7.8822 10.50255,11.19228 3.41013,5.21749 5.545,10.40957 6.86768,16.70247 0.89182,4.24298 0.87745,12.96845 -0.0285,17.33211 -3.13691,15.10866 -13.10523,27.49644 -26.88919,33.41564 -3.66129,1.57225 -9.54076,3.18185 -10.44469,2.85942 -1.28812,-0.45949 -1.98557,-1.34447 -1.98557,-2.51945 0,-1.85481 0.6774,-2.35869 4.76283,-3.54283 4.66587,-1.35235 8.38827,-3.03629 11.85829,-5.36441 11.81611,-7.92775 18.5825,-21.28783 17.90763,-35.35826 -1.10694,-23.0791 -21.21826,-40.47294 -44.14587,-38.18082 -16.623764,1.66191 -30.150754,12.88657 -34.779704,28.8601 -2.959715,10.21337 -1.83243,21.00885 3.1446,30.1143 2.86484,5.24122 2.72112,4.80231 1.99386,6.0891 -0.35552,0.62904 -6.02213,5.94842 -12.592465,11.82084 -6.570348,5.87242 -11.946087,10.77005 -11.946087,10.88361 0,0.11349 2.320199,2.52222 5.156001,5.35259 3.21646,3.2103 5.28179,5.01181 5.490378,4.78904 0.183895,-0.19639 5.089546,-5.66734 10.901443,-12.15767 5.81188,-6.49031 11.04517,-12.03219 11.62953,-12.31526 0.97612,-0.47287 1.20706,-0.43437 2.84193,0.4739 6.63098,3.68386 11.60219,5.40802 17.653554,6.12279 2.80951,0.33185 3.86529,0.61439 4.50037,1.20432 1.01906,0.94664 1.0709,2.47578 0.12353,3.64367 -0.64163,0.79098 -0.95164,0.86139 -3.38992,0.76988 -2.90754,-0.10913 -8.731114,-1.21398 -11.392154,-2.16134 -0.91269,-0.32494 -3.28353,-1.34956 -5.26853,-2.27693 l -3.60908,-1.68613 -0.85971,0.89994 c -0.47283,0.49498 -9.68218,10.74503 -20.465223,22.77792 l -19.605535,21.87796 0.104373,3.93581 0.104373,3.93581 65.548556,0.0932 65.54856,0.0931 v -69.05705 -69.05718 l -5.87637,-5.86777 c -3.23201,-3.22727 -5.97363,-6.25527 -6.09251,-6.72888 -0.47716,-1.90117 1.54661,-3.86767 3.38111,-3.28542 0.37656,0.11951 3.70744,3.25617 7.40197,6.97035 l 6.71732,6.75305 v 71.99611 71.9961 l -0.90515,0.90517 -0.90516,0.90515 h -68.95912 c -50.671491,0 -69.202802,-0.11098 -69.878082,-0.41872 -1.184687,-0.53978 -1.388677,-1.05921 -1.658541,-4.22324 l -0.222935,-2.61375 -3.252554,3.63354 c -1.861051,2.07905 -3.892704,3.96013 -4.748854,4.3969 -1.998677,1.01964 -4.850782,1.20996 -6.895225,0.46008 z m 4.272609,-5.39775 c 0.444272,-0.24702 2.382268,-2.191 4.306642,-4.31996 l 3.498848,-3.87084 -6.678394,-6.7085 -6.678407,-6.70849 -2.053453,1.78498 c -1.129409,0.98172 -3.090631,2.75962 -4.358261,3.95085 -3.468989,3.25988 -3.517226,3.12507 3.700063,10.34236 3.769809,3.76981 6.274774,5.99999 6.730013,5.99179 0.398837,-0.007 1.088663,-0.21517 1.532949,-0.46219 z m 7.303601,-20.91481 c -3.442685,-3.44715 -6.344215,-6.26158 -6.447861,-6.25429 -0.103713,0.008 -0.686299,0.42017 -1.294768,0.91749 l -1.106301,0.90423 6.447928,6.4563 6.447927,6.4563 1.106236,-1.10623 1.106248,-1.10625 z m 15.473182,-4.05494 c 2.815192,-3.14374 5.418427,-6.05405 5.784987,-6.46732 0.655727,-0.73931 0.578531,-0.83923 -4.786639,-6.19544 l -5.453108,-5.44402 -6.430382,5.74975 c -3.5367,3.16237 -6.492121,5.92814 -6.5676,6.14616 -0.17096,0.49386 11.426098,12.16363 11.951636,12.02656 0.210424,-0.0548 2.685928,-2.67194 5.501106,-5.81569 z m 68.959506,-2.38023 c -1.16147,-1.16148 -1.1831,-2.76162 -0.0517,-3.82455 l 0.8535,-0.80181 h 20.73621 20.7362 l 0.90516,0.90515 c 0.49783,0.49784 0.90515,1.15381 0.90515,1.45772 0,1.03618 -0.81717,2.34902 -1.71746,2.75922 -0.62378,0.28421 -7.10167,0.40943 -21.18027,0.40943 h -20.28168 z m 0.0665,-11.29096 c -1.34375,-1.05699 -1.34375,-2.94592 0,-4.00292 0.87624,-0.68925 1.4707,-0.7643 6.0545,-0.7643 2.79559,0 5.3515,0.10305 5.67982,0.22907 0.90029,0.34547 1.72685,2.20565 1.45729,3.27965 -0.44318,1.76577 -1.33328,2.0228 -7.00461,2.0228 -4.71784,0 -5.30804,-0.0729 -6.187,-0.7643 z m 19.47822,-0.14086 c -0.49785,-0.49784 -0.90516,-1.33511 -0.90516,-1.8606 0,-0.52549 0.40731,-1.36276 0.90516,-1.86061 l 0.90515,-0.90515 H 151.571 c 10.05599,0 10.91728,0.0507 11.70672,0.69003 1.18409,0.9588 1.18409,3.19266 0,4.15147 -0.78944,0.63926 -1.65073,0.69002 -11.70672,0.69002 H 140.71639 Z M 66.957353,240.31708 c -1.130584,-0.41058 -1.924718,-1.92399 -1.594648,-3.03895 0.128154,-0.43304 1.748024,-2.32235 3.599611,-4.19846 2.80543,-2.84259 3.55676,-3.41111 4.50802,-3.41111 1.42741,0 2.74513,1.32127 2.74513,2.75253 0,0.82653 -0.71452,1.76143 -3.41111,4.4632 -1.87611,1.87972 -3.743,3.49957 -4.14864,3.59969 -0.405644,0.10015 -1.169905,0.025 -1.698363,-0.1669 z m 39.230757,-11.08431 c -11.755514,-0.9747 -22.268344,-8.60434 -27.129504,-19.68913 -4.01324,-9.15128 -3.24096,-20.97756 1.93679,-29.65878 9.1835,-15.39744 29.372884,-20.59978 44.829874,-11.55162 3.11504,1.82349 7.62166,5.90142 9.8565,8.91894 7.05129,9.52079 8.25343,23.20793 2.96616,33.77157 -5.21564,10.42052 -15.08627,17.23595 -26.356,18.19817 -1.68943,0.14424 -4.43616,0.14912 -6.10382,0.0106 z m 11.43195,-6.66332 c 8.13062,-2.6703 14.76442,-9.295 17.52984,-17.50583 0.87203,-2.58913 0.96597,-3.40664 0.96521,-8.39981 -7.4e-4,-5.02554 -0.0915,-5.80139 -0.99249,-8.48167 -3.0278,-9.00757 -10.60151,-15.96084 -19.7329,-18.11637 -3.55506,-0.8392 -9.48641,-0.74803 -13.12258,0.2017 -9.623384,2.51352 -17.571754,10.77884 -19.626954,20.40962 -1.60501,7.52114 0.0472,15.69002 4.40886,21.79835 3.75694,5.26146 8.95953,8.82403 15.437974,10.57146 3.94089,1.06298 11.13366,0.83604 15.13304,-0.47745 z M 40.9254,202.30709 c -0.445647,-0.21532 -0.984978,-0.89264 -1.198493,-1.50515 -0.540679,-1.55096 -0.541736,-90.80139 -0.0011,-92.35226 0.212921,-0.61078 0.801532,-1.29932 1.308045,-1.5301 0.673364,-0.30681 13.925079,-0.4196 49.297764,-0.4196 h 48.376844 l 11.34626,11.34626 c 12.31285,12.31284 12.36152,12.37949 10.44111,14.29989 -1.89947,1.89948 -2.04523,1.79554 -13.47189,-9.60619 l -10.53433,-10.51134 -45.717514,0.0936 -45.717505,0.0936 -0.09367,44.50316 -0.09367,44.50316 -0.970167,0.76314 c -1.067009,0.8393 -1.747865,0.91302 -2.971671,0.32174 z m 18.813977,-60.83953 c -1.773522,-0.86668 -1.873099,-3.78952 -0.160338,-4.70616 0.493843,-0.2643 8.552815,-0.39119 24.845227,-0.39119 h 24.114294 l 0.80182,0.85349 c 0.98959,1.05338 1.02761,2.47358 0.097,3.62307 l -0.70484,0.87058 -24.094844,0.0714 c -16.431044,0.0487 -24.350393,-0.0534 -24.898312,-0.32122 z"
         style="fill:#ffffff;stroke-width:0.36876824" />
    </g>
  </g>
</svg>
