<?xml version="1.0" encoding="UTF-8" standalone="no"?>
<!-- Created with Inkscape (http://www.inkscape.org/) -->

<svg
   xmlns:dc="http://purl.org/dc/elements/1.1/"
   xmlns:cc="http://creativecommons.org/ns#"
   xmlns:rdf="http://www.w3.org/1999/02/22-rdf-syntax-ns#"
   xmlns:svg="http://www.w3.org/2000/svg"
   xmlns="http://www.w3.org/2000/svg"
   xmlns:sodipodi="http://sodipodi.sourceforge.net/DTD/sodipodi-0.dtd"
   xmlns:inkscape="http://www.inkscape.org/namespaces/inkscape"
   width="720"
   height="720"
   viewBox="0 0 190.5 190.50001"
   version="1.1"
   id="svg8"
   inkscape:version="0.92.3 (2405546, 2018-03-11)"
   sodipodi:docname="2.svg">
  <defs
     id="defs2" />
  <sodipodi:namedview
     id="base"
     pagecolor="#ffffff"
     bordercolor="#666666"
     borderopacity="1.0"
     inkscape:pageopacity="0.0"
     inkscape:pageshadow="2"
     inkscape:zoom="0.7"
     inkscape:cx="324.14134"
     inkscape:cy="288.40592"
     inkscape:document-units="mm"
     inkscape:current-layer="layer1"
     showgrid="false"
     units="px"
     inkscape:window-width="1920"
     inkscape:window-height="1017"
     inkscape:window-x="-8"
     inkscape:window-y="-8"
     inkscape:window-maximized="1" />
  <metadata
     id="metadata5">
    <rdf:RDF>
      <cc:Work
         rdf:about="">
        <dc:format>image/svg+xml</dc:format>
        <dc:type
           rdf:resource="http://purl.org/dc/dcmitype/StillImage" />
        <dc:title></dc:title>
      </cc:Work>
    </rdf:RDF>
  </metadata>
  <g
     inkscape:label="Capa 1"
     inkscape:groupmode="layer"
     id="layer1"
     transform="translate(0,-106.49998)">
    <g
       transform="translate(2.1952362e-6)"
       id="layer1-5"
       inkscape:label="Capa 1"
       style="fill:#ffffff">
      <path
         inkscape:connector-curvature="0"
         id="path839"
         d="m 0.71585139,285.74947 c -0.784052,-0.99674 -0.792787,-1.17045 -0.635652,-12.63307 0.124483,-9.08 0.283851,-12.02587 0.728604,-13.46667 1.97584401,-6.40095 6.06734301,-11.30827 11.59954361,-13.91243 1.25571,-0.59109 6.457254,-2.12958 11.559001,-3.41885 5.101733,-1.28927 9.319921,-2.39868 9.373744,-2.46535 0.05378,-0.0667 0.560513,-1.36608 1.125995,-2.88759 0.565482,-1.5215 1.286739,-3.21808 1.602807,-3.77017 0.691894,-1.2086 2.411743,-1.91128 3.392839,-1.38621 1.087739,0.58215 1.389417,-0.40353 0.325583,-1.0638 -1.800273,-1.11736 -6.141886,-5.83222 -7.484073,-8.1275 -0.759064,-1.29805 -1.719109,-3.39279 -2.133455,-4.65496 l -0.753355,-2.29486 -1.990525,-0.20543 c -8.924406,-0.92109 -12.67798,-11.75192 -6.322729,-18.24407 1.48813,-1.52018 4.580401,-3.03947 6.186366,-3.03947 0.398119,0 0.72386,-0.0559 0.72386,-0.12435 0,-0.0683 -0.247999,-1.76971 -0.551104,-3.78071 -0.971476,-6.44544 -0.509769,-12.586 1.244544,-16.55193 0.787264,-1.77973 3.772496,-5.20827 4.82597,-5.54263 0.355818,-0.11299 1.182527,-0.9902 1.837129,-1.94947 1.297535,-1.90142 3.167027,-3.39107 5.184325,-4.13094 0.732687,-0.26872 3.733923,-0.55242 6.940012,-0.65601 l 5.649032,-0.1825 0.935903,-1.52212 c 2.840056,-4.61892 8.718931,-12.03423 10.567055,-13.32871 1.774293,-1.24276 4.309369,0.0377 4.309369,2.17647 0,0.97462 -0.524081,1.77596 -2.816905,4.30721 -1.549287,1.7104 -3.635169,4.2717 -4.635295,5.69177 l -1.818404,2.58193 11.182369,0.18641 c 6.150309,0.10255 11.477439,0.32954 11.838099,0.50446 0.36065,0.17493 0.83687,0.65649 1.05825,1.07015 0.50747,0.94823 0.45662,10.61621 -0.0799,15.18623 -0.4633,3.9466 -1.92446,10.75889 -2.94199,13.71638 -0.39747,1.15531 -0.68077,2.1234 -0.62952,2.15133 0.0513,0.0279 1.07575,0.35003 2.2767,0.71577 2.80809,0.85521 5.6884,3.59497 6.60382,6.28159 2.31528,6.79498 -1.82912,13.61585 -8.8199,14.51583 l -2.03128,0.2615 -0.86805,2.48726 c -1.568501,4.49431 -4.36516,8.43649 -7.972169,11.23758 -2.30148,1.78727 -2.947082,2.95849 -1.28177,2.32533 0.583018,-0.22166 1.301433,-0.2083 2.005973,0.0373 0.905509,0.31566 1.304129,0.87813 2.277125,3.21305 0.648708,1.55673 1.338302,3.28463 1.532439,3.83977 0.255783,0.73144 0.724375,1.1062 1.701811,1.36102 0.741858,0.19343 4.917441,1.25475 9.279071,2.3585 4.36165,1.10377 8.84317,2.41785 9.95893,2.92021 2.9506,1.32844 6.385006,4.06857 8.195066,6.53839 0.86869,1.18533 1.9114,2.25187 2.31713,2.3701 0.40574,0.11827 2.87416,0.21724 5.48539,0.22001 29.50643,0.0313 54.76898,-21.08969 59.99385,-50.15842 1.02154,-5.68341 1.06692,-16.8758 0.0825,-20.33117 l -0.27541,-0.96661 -33.69222,11.57101 c -18.53073,6.36406 -34.16249,11.57101 -34.73725,11.57101 -1.35741,0 -2.709336,-1.62838 -2.445826,-2.94596 0.10215,-0.51092 6.419186,-15.94485 14.037776,-34.29765 7.61858,-18.3528 13.73079,-33.48774 13.58266,-33.63321 -0.55771,-0.54772 -8.11651,-1.83527 -12.22626,-2.08258 -13.40498,-0.80669 -25.468786,2.23194 -36.898586,9.29402 -1.512166,0.93432 -3.025114,1.69876 -3.362101,1.69876 -1.227629,0 -2.556443,-1.45184 -2.556443,-2.79313 0,-1.62077 0.60136,-2.20106 4.906604,-4.73484 11.76855,-6.92615 24.558996,-9.92923 38.362086,-9.00704 7.67426,0.51273 16.70298,2.66401 17.97676,4.28335 0.39665,0.50426 0.71804,1.18492 0.7142,1.51258 -0.004,0.32765 -6.03963,15.11916 -13.41289,32.87002 -7.37324,17.75086 -13.37192,32.31697 -13.3304,32.36914 0.0415,0.0522 14.57645,-4.88579 32.29986,-10.97326 17.7234,-6.08746 32.65695,-11.06811 33.18567,-11.06811 1.70316,0 2.43484,1.12531 3.10588,4.7767 2.22615,12.11345 1.01373,25.13743 -3.38386,36.34996 -5.30574,13.52801 -14.70231,24.75766 -27.20739,32.515 -10.00573,6.20692 -22.33141,9.7182 -34.11383,9.7182 h -4.39613 l 0.25926,1.93646 c 0.14259,1.06505 0.25926,6.69112 0.25926,12.50236 0,9.87272 -0.0461,10.61683 -0.70265,11.34211 -0.6858,0.75758 -0.98,0.7762 -12.264226,0.7762 -11.06978,0 -11.59295,-0.0315 -12.29927,-0.73771 -0.95117,-0.95116 -0.97551,-2.99008 -0.0457,-3.83151 0.38057,-0.34442 1.27576,-0.72094 1.9893,-0.83673 l 1.29735,-0.21053 0.13729,-4.01093 c 0.12065,-3.52453 0.23474,-4.10839 0.941,-4.81463 1.0523,-1.05231 2.85018,-1.05231 3.90249,0 0.7073,0.7073 0.82035,1.28987 0.94243,4.8565 l 0.13873,4.0528 h 5.34771 5.347696 l -0.17011,-9.49786 c -0.15132,-8.44882 -0.25519,-9.73143 -0.94032,-11.61251 -1.423916,-3.90949 -4.540096,-7.46952 -8.131086,-9.28921 -1.01788,-0.51579 -5.70117,-1.88446 -10.40731,-3.04148 l -8.556625,-2.10369 -4.666323,4.77046 c -3.895446,3.98237 -5.040153,5.42624 -6.929295,8.74026 l -2.262986,3.96982 1.341738,9.0321 1.341738,9.03211 h 3.918968 c 4.472293,0 5.963185,0.38534 6.560144,1.69553 0.586533,1.28729 0.530555,1.75253 -0.344771,2.86534 l -0.764468,0.97187 H 36.866765 1.5108064 Z M 16.211237,277.55626 c 0,-2.01914 0.187516,-4.08268 0.416698,-4.58569 0.85269,-1.87145 3.777941,-2.03775 4.724759,-0.26861 0.215201,0.40211 0.391273,2.48483 0.391273,4.62826 v 3.89717 h 11.42729 11.42729 l 0.192155,-0.82991 c 0.105717,-0.45645 0.739929,-4.52143 1.409436,-9.03327 l 1.217283,-8.20335 -2.322663,-3.96865 c -1.816567,-3.10392 -3.317516,-5.0135 -6.888317,-8.7637 l -4.565654,-4.79504 -8.354616,2.09018 c -9.671114,2.41954 -12.191798,3.46853 -14.841563,6.17632 -4.2131126,4.30539 -4.9170586,6.98586 -4.9245376,18.75168 l -0.0053,8.57574 h 5.3483186 5.348306 z m 40.921672,3.02564 c -0.01189,-0.35501 -0.555121,-4.1311 -1.208468,-8.39131 -1.175352,-7.66395 -1.19783,-7.74699 -2.126319,-7.85615 l -0.9384,-0.11034 -1.176343,7.85615 c -0.646977,4.32089 -1.174731,8.14663 -1.172762,8.50164 0.0026,0.56667 0.408915,0.64548 3.323211,0.64548 2.923494,0 3.317186,-0.077 3.299081,-0.64548 z m -0.303818,-22.72673 c 0.334529,-0.73422 0.149511,-1.40621 -1.167952,-4.24176 -0.861001,-1.85313 -1.673214,-3.36933 -1.804925,-3.36933 -0.13175,0 -0.967816,1.48591 -1.857995,3.30202 -1.42137,2.89981 -1.566348,3.41646 -1.190325,4.24176 0.399863,0.87761 0.599933,0.93975 3.025934,0.93975 2.373553,0 2.632071,-0.0753 2.995263,-0.87244 z m 12.256365,-15.90094 c -0.1299,-0.40914 -0.502421,-1.36728 -0.827938,-2.12923 l -0.591859,-1.38533 -4.979458,2.98772 c -2.7387,1.64324 -5.027414,3.03317 -5.086034,3.08872 -0.05867,0.0555 0.592281,1.62656 1.446424,3.49113 l 1.553001,3.39013 4.360985,-4.34963 c 3.500103,-3.49098 4.314378,-4.49647 4.124879,-5.09351 z m -20.479125,5.84945 c 0.866895,-1.74797 1.52632,-3.21183 1.465374,-3.25302 -0.255386,-0.17266 -9.721039,-5.87067 -9.936187,-5.98126 -0.129503,-0.0665 -0.610795,0.80415 -1.069714,1.93485 l -0.834387,2.05581 4.198907,4.21085 c 2.309409,2.31598 4.289124,4.21087 4.399374,4.21087 0.110211,0 0.909724,-1.43016 1.776633,-3.1781 z m 9.211904,-9.91604 c 3.248707,-1.91819 3.749067,-2.34382 3.754802,-3.19405 l 0.0066,-0.98095 -1.936464,0.53567 c -2.551805,0.7059 -9.100915,0.70894 -11.618745,0.005 l -1.93645,-0.54109 v 0.98256 c 0,0.85142 0.504654,1.2881 3.780702,3.27146 2.079381,1.25889 3.875347,2.25406 3.991015,2.21148 0.115628,-0.0426 1.897005,-1.07331 3.958519,-2.29051 z m 0.995051,-9.10024 c 4.384336,-1.11059 9.743002,-5.36198 11.91219,-9.45074 2.056003,-3.87544 2.413777,-5.82644 2.444805,-13.33206 l 0.02815,-6.80131 -1.748565,-0.39124 c -2.728181,-0.61044 -3.230893,-1.24356 -3.230893,-4.0691 0,-2.18147 -0.07374,-2.4107 -0.829908,-2.58111 -1.613867,-0.36364 -11.219106,-1.25888 -15.768295,-1.46967 -2.535828,-0.11747 -6.228931,-0.30721 -8.206889,-0.4216 l -3.596266,-0.208 v 3.46934 c 0,3.12123 -0.08325,3.54744 -0.829921,4.24791 -0.456447,0.42821 -1.659815,0.91728 -2.674146,1.08683 l -1.844252,0.30826 -0.101489,6.23736 c -0.116949,7.18847 0.458021,10.35978 2.550167,14.06685 2.226208,3.94463 6.688722,7.63618 10.91842,9.03211 3.180056,1.04951 7.495306,1.15808 10.976881,0.27617 z M 42.345711,208.79084 c -1.246051,-0.62123 -1.844886,-2.0136 -1.661943,-3.86429 0.193318,-1.95559 1.2398,-3.12463 2.797043,-3.12463 1.891362,0 2.607188,0.99583 2.607188,3.62701 0,1.71583 -0.1604,2.42195 -0.645484,2.8416 -0.935123,0.80901 -2.118839,1.00789 -3.096804,0.52031 z m 20.816839,-0.0494 c -1.317145,-0.55381 -1.582892,-1.13909 -1.582892,-3.48617 0,-2.27643 0.880216,-3.45328 2.582833,-3.45328 1.913417,0 3.08051,1.58463 2.859693,3.88274 -0.267795,2.78707 -1.735839,3.94971 -3.859634,3.05671 z m -34.410449,-3.86571 c 0,-5.10965 -0.0093,-5.16387 -0.829908,-5.16251 -1.252565,0.003 -3.114895,1.29303 -3.813092,2.6432 -1.323197,2.55878 -0.406298,5.67978 2.055304,6.99599 2.555597,1.36648 2.587696,1.31093 2.587696,-4.47668 z m 52.350933,4.62385 c 0.57436,-0.29701 1.47902,-1.05666 2.01035,-1.68812 2.37467,-2.82212 0.13201,-8.09961 -3.44182,-8.09961 -0.72612,0 -0.75601,0.20419 -0.75601,5.16388 0,5.66478 0.0344,5.73731 2.18748,4.62385 z m -5.740611,-18.9315 c 1.973931,-6.26619 3.184281,-14.00739 3.184281,-20.36605 v -3.35057 l -18.047002,0.10863 c -17.653234,0.10624 -18.069721,0.1254 -19.087938,0.88098 -0.572512,0.42481 -1.40645,1.42069 -1.853185,2.2131 -0.461443,0.81844 -1.6563,1.99831 -2.766371,2.73168 -3.305015,2.18345 -4.62068,6.09348 -4.219813,12.54087 0.261227,4.20135 0.928185,8.11467 1.383007,8.11467 0.181186,0 0.329429,-1.55844 0.329429,-3.4632 0,-2.86778 0.121839,-3.61291 0.708636,-4.33398 0.701606,-0.86214 0.776507,-0.87025 7.554798,-0.81848 10.685274,0.0817 27.717618,1.63815 29.734017,2.7173 1.026648,0.54944 1.469392,1.84036 1.469392,4.28432 0,2.67007 0.494836,2.28321 1.610749,-1.25926 z m 40.133467,0.54423 c -0.44109,-0.46953 -0.80198,-1.21498 -0.80198,-1.65658 0,-0.69135 27.94764,-68.59894 29.34144,-71.29424 0.96254,-1.86135 2.28422,-1.88626 6.66718,-0.12567 19.20744,7.71561 33.72791,24.07292 39.25555,44.22133 1.04253,3.80007 0.71684,4.66164 -2.17984,5.76653 -6.96537,2.65678 -23.87809,8.0407 -24.65,7.84696 -1.91798,-0.48137 -2.58907,-3.12323 -1.12946,-4.44614 0.46335,-0.41995 5.5546,-2.35009 11.52653,-4.36981 5.88315,-1.98969 10.77445,-3.68059 10.86958,-3.75758 0.38382,-0.31057 -2.1253,-6.82936 -4.25305,-11.04961 -4.72699,-9.37564 -11.7816,-17.36886 -20.44836,-23.16899 -3.6275,-2.42764 -11.28419,-6.36043 -11.65708,-5.98753 -0.29982,0.29982 -25.58358,61.26516 -25.45955,61.38919 0.056,0.056 6.61364,-2.13726 14.57237,-4.8741 7.95873,-2.73682 15.03276,-4.97605 15.72005,-4.97605 2.31689,0 3.39585,3.38654 1.4791,4.64244 -1.30237,0.85335 -35.87768,12.69348 -37.06723,12.69348 -0.55086,0 -1.33592,-0.37542 -1.78525,-0.85368 z"
         style="fill:#ffffff;stroke-width:0.36884895" />
    </g>
  </g>
</svg>
