<?xml version="1.0" encoding="UTF-8" standalone="no"?>
<!-- Created with Inkscape (http://www.inkscape.org/) -->

<svg
   xmlns:dc="http://purl.org/dc/elements/1.1/"
   xmlns:cc="http://creativecommons.org/ns#"
   xmlns:rdf="http://www.w3.org/1999/02/22-rdf-syntax-ns#"
   xmlns:svg="http://www.w3.org/2000/svg"
   xmlns="http://www.w3.org/2000/svg"
   xmlns:sodipodi="http://sodipodi.sourceforge.net/DTD/sodipodi-0.dtd"
   xmlns:inkscape="http://www.inkscape.org/namespaces/inkscape"
   width="720"
   height="720"
   viewBox="0 0 190.5 190.50001"
   version="1.1"
   id="svg8"
   inkscape:version="0.92.3 (2405546, 2018-03-11)"
   sodipodi:docname="3.svg">
  <defs
     id="defs2" />
  <sodipodi:namedview
     id="base"
     pagecolor="#ffffff"
     bordercolor="#666666"
     borderopacity="1.0"
     inkscape:pageopacity="0.0"
     inkscape:pageshadow="2"
     inkscape:zoom="0.7"
     inkscape:cx="324.14134"
     inkscape:cy="288.40592"
     inkscape:document-units="mm"
     inkscape:current-layer="layer1"
     showgrid="false"
     units="px"
     inkscape:window-width="1920"
     inkscape:window-height="1017"
     inkscape:window-x="-8"
     inkscape:window-y="-8"
     inkscape:window-maximized="1" />
  <metadata
     id="metadata5">
    <rdf:RDF>
      <cc:Work
         rdf:about="">
        <dc:format>image/svg+xml</dc:format>
        <dc:type
           rdf:resource="http://purl.org/dc/dcmitype/StillImage" />
        <dc:title></dc:title>
      </cc:Work>
    </rdf:RDF>
  </metadata>
  <g
     inkscape:label="Capa 1"
     inkscape:groupmode="layer"
     id="layer1"
     transform="translate(0,-106.49998)">
    <g
       transform="translate(1.5024652e-6,-5e-5)"
       id="layer1-1"
       inkscape:label="Capa 1"
       style="fill:#ffffff">
      <path
         inkscape:connector-curvature="0"
         id="path852"
         d="m 12.741252,296.55944 c -0.445292,-0.21515 -0.984183,-0.89192 -1.197535,-1.50394 -0.251699,-0.72203 -0.387912,-7.62751 -0.387912,-19.66562 V 256.83701 H 9.5150168 c -3.874246,0 -4.366296,-1.06608 -4.191926,-9.08217 0.16888,-7.76493 -0.78118,-7.13061 10.6799612,-7.13061 8.663398,0 9.194244,0.0396 9.891639,0.73695 0.992658,0.99265 0.973382,2.9878 -0.03772,3.90396 -0.695654,0.63036 -1.505318,0.71359 -7.938484,0.81611 l -7.163822,0.11419 0.108447,2.46513 0.108448,2.46514 20.910797,0.0952 20.910796,0.0952 v -2.58235 -2.58235 h -8.051405 c -8.315531,0 -10.082853,-0.24473 -10.748454,-1.48841 -0.516603,-0.96529 -0.425386,-2.26379 0.218996,-3.11749 0.522121,-0.69173 1.103619,-0.74825 9.476442,-0.92119 l 8.920185,-0.18423 0.09991,-7.27732 0.09991,-7.27733 h -2.93823 c -5.365809,0 -5.669468,-0.52441 -5.488676,-9.47893 0.114031,-5.64805 0.167083,-6.02477 0.959903,-6.81674 l 0.839202,-0.83828 30.757287,-0.0984 30.757297,-0.0983 v -9.02136 -9.02136 h -2.52433 c -2.89037,0 -4.70103,-0.51616 -5.221373,-1.48842 -0.198382,-0.37068 -0.360695,-3.67703 -0.360695,-7.34744 0,-6.59412 0.01082,-6.68423 0.904438,-7.57789 0.8801,-0.88011 1.05351,-0.90444 6.44826,-0.90444 h 5.54383 v -6.79619 c 0,-6.65125 0.0189,-6.81823 0.88856,-7.83003 l 0.88854,-1.03385 7.40208,-0.11367 7.40207,-0.11353 v -1.59747 -1.59746 l -2.33636,-0.93532 c -12.54369,-5.02161 -20.50891,-17.01179 -20.50891,-30.87241 0,-3.62266 -0.005,-3.64401 -0.90385,-3.64401 -1.2962,0 -2.63557,0.69309 -3.1049,1.6067 -0.25806,0.50236 -0.43984,4.48411 -0.50107,10.97544 -0.11634,12.33447 0.11362,11.73703 -4.517757,11.73703 -2.55629,0 -3.120447,-0.1134 -3.689026,-0.74171 -1.431097,-1.58134 -0.491515,-4.12806 1.700637,-4.60953 l 1.067209,-0.2344 v -8.82589 c 0,-9.54131 0.09757,-10.13439 2.04782,-12.44748 1.333086,-1.5811 4.301047,-2.97897 6.334917,-2.98364 l 1.56602,-0.004 v -2.55253 c 0,-2.31869 0.089,-2.62253 0.97087,-3.31625 0.96465,-0.75879 1.16867,-0.76369 31.82316,-0.76369 30.65447,0 30.85849,0.005 31.82314,0.76369 0.88192,0.69372 0.97088,0.99756 0.97088,3.31625 v 2.55257 l 1.566,0.008 c 1.63037,0.008 4.36262,1.054 5.56826,2.13088 0.38457,0.3435 1.13371,1.28781 1.66474,2.09845 l 0.96551,1.47389 0.11498,9.27965 0.11498,9.27966 1.04441,0.22938 c 2.17058,0.47675 3.10147,3.03143 1.67783,4.60453 -0.56858,0.62828 -1.13274,0.74171 -3.68902,0.74171 -4.63138,0 -4.40142,0.59744 -4.51776,-11.73703 -0.0613,-6.49133 -0.24302,-10.47308 -0.50108,-10.97544 -0.46933,-0.91361 -1.80869,-1.6067 -3.10489,-1.6067 -0.89855,0 -0.90384,0.0214 -0.90384,3.64401 0,13.13881 -7.06534,24.49567 -18.71241,30.07843 l -3.02746,1.45114 v 1.73084 1.73083 l 7.51584,0.11934 c 6.7755,0.10746 7.59215,0.18842 8.29062,0.82122 0.73652,0.66725 0.77479,1.05406 0.77479,7.83002 v 7.12811 h 3.14877 c 2.85183,0 3.23405,0.0853 4.05319,0.90443 l 0.90443,0.90443 v 60.23521 60.2352 l -0.97087,0.76369 -0.97088,0.76369 -79.632415,-0.025 c -55.365688,-0.0173 -79.879138,-0.14414 -80.44204,-0.4161 z M 52.793161,274.1552 V 256.83701 H 34.738024 16.682887 v 17.07254 c 0,9.38991 0.110546,17.18309 0.245648,17.3182 0.135106,0.1351 8.259917,0.24565 18.055137,0.24565 h 17.809489 z m 54.902349,-4.55092 c 0,-14.32038 0.13352,-22.25211 0.38683,-22.97872 0.36387,-1.04384 1.62313,-1.94814 2.71284,-1.94814 0.26712,0 0.92129,0.34267 1.45372,0.76147 l 0.96806,0.76147 0.0949,22.5444 0.0949,22.5444 27.91177,0.0944 27.91177,0.0944 v -50.48301 -50.48301 h -2.5243 c -4.07856,0 -5.58206,-0.83706 -5.58206,-3.10779 0,-1.86055 1.10629,-2.41929 4.79014,-2.41929 h 3.31625 v -3.13201 -3.13202 h -32.05704 -32.05708 v 3.13202 3.13201 h 23.7521 23.7521 l 0.75131,0.80642 c 1.38725,1.48905 0.82228,3.62998 -1.13828,4.31343 -0.79423,0.27688 -7.22507,0.40723 -20.08951,0.40723 h -18.92134 v 23.15665 c 0,22.73816 -0.0135,23.16876 -0.74169,23.82787 -1.01611,0.91956 -2.79949,0.85546 -3.79255,-0.13633 -0.74512,-0.74414 -0.81796,-1.2263 -0.9279,-6.1412 l -0.11934,-5.33367 H 82.980697 58.320244 v 32.79402 32.79403 h 24.687636 24.68763 z m 0,-52.38027 v -3.13426 l -28.832942,0.0944 -28.832948,0.0944 -0.110217,2.54274 c -0.06062,1.39852 -0.02436,2.76646 0.08055,3.0399 0.157845,0.41133 5.153529,0.49714 28.943169,0.49714 h 28.752388 z m 53.42847,-49.19176 v -5.16158 l -21.4635,0.095 -21.4635,0.0951 -0.10258,5.06648 -0.10257,5.06649 h 21.56602 21.56603 z m -32.15689,2.49015 c -1.56499,-1.1833 -1.37995,-3.8728 0.31973,-4.64723 0.6138,-0.27967 4.17108,-0.41926 10.6841,-0.41926 h 9.76393 l 0.90442,0.90443 c 1.23079,1.23079 1.20272,2.86064 -0.0664,3.85897 -0.92809,0.73004 -1.41193,0.76369 -10.98374,0.76369 -7.43976,0 -10.1694,-0.11842 -10.622,-0.4606 z m 15.57564,-14.32435 c 0,-1.09314 -0.0584,-1.13981 -1.15147,-0.92118 -0.63331,0.1266 -2.87178,0.23029 -4.97438,0.23029 h -3.82289 v 0.92118 0.92118 h 4.97437 4.97437 z m 2.64071,-7.41546 c 4.46973,-1.44865 7.49581,-3.34134 10.99276,-6.87555 1.72261,-1.74094 3.69002,-4.11693 4.37202,-5.27995 1.71876,-2.931 3.29845,-7.71655 3.59287,-10.8843 l 0.24733,-2.66118 h -27.37276 -27.37277 l 0.24732,2.66118 c 0.29442,3.16775 1.87411,7.9533 3.59287,10.8843 1.76064,3.00243 6.9865,8.15822 9.91676,9.78382 4.9778,2.76149 8.56133,3.60516 14.53699,3.42244 3.43748,-0.10508 5.05045,-0.33898 7.24661,-1.05076 z m 19.09915,-33.99161 v -2.76354 h -27.26693 -27.26695 v 2.76354 2.76355 h 27.26695 27.26693 z M 14.337509,221.06847 c -1.274652,-1.00264 -1.336592,-2.96962 -0.130216,-4.13532 0.462358,-0.44677 18.282527,-14.07732 39.600376,-30.2901 21.317848,-16.21277 38.764398,-29.60212 38.77011,-29.75412 0.0057,-0.152 -1.131936,-0.27635 -2.528103,-0.27635 -1.917972,0 -2.743615,-0.1661 -3.377659,-0.67953 -1.107491,-0.89679 -1.122787,-2.76218 -0.03162,-3.85473 0.751075,-0.75202 1.212953,-0.81706 6.601795,-0.92964 6.511865,-0.13604 8.210998,0.17231 8.865548,1.60889 0.56484,1.2397 0.58124,12.32988 0.02,13.56155 -0.40987,0.89958 -1.72165,1.7161 -2.756992,1.7161 -0.303666,0 -0.959111,-0.407 -1.456549,-0.90444 -0.789079,-0.7891 -0.904411,-1.23547 -0.904411,-3.50049 0,-1.42783 -0.09385,-2.59605 -0.208567,-2.59605 -0.114718,0 -17.928164,13.50179 -39.585449,30.00397 -21.657281,16.50219 -39.708992,30.18171 -40.11491,30.39895 -1.068613,0.57192 -1.669524,0.49173 -2.763386,-0.36869 z"
         style="fill:#ffffff;stroke-width:0.36847219" />
    </g>
  </g>
</svg>
