<?xml version="1.0" encoding="UTF-8" standalone="no"?>
<!-- Created with Inkscape (http://www.inkscape.org/) -->

<svg
   xmlns:dc="http://purl.org/dc/elements/1.1/"
   xmlns:cc="http://creativecommons.org/ns#"
   xmlns:rdf="http://www.w3.org/1999/02/22-rdf-syntax-ns#"
   xmlns:svg="http://www.w3.org/2000/svg"
   xmlns="http://www.w3.org/2000/svg"
   xmlns:sodipodi="http://sodipodi.sourceforge.net/DTD/sodipodi-0.dtd"
   xmlns:inkscape="http://www.inkscape.org/namespaces/inkscape"
   width="720"
   height="720"
   viewBox="0 0 190.5 190.50001"
   version="1.1"
   id="svg8"
   inkscape:version="0.92.3 (2405546, 2018-03-11)"
   sodipodi:docname="4.svg">
  <defs
     id="defs2" />
  <sodipodi:namedview
     id="base"
     pagecolor="#ffffff"
     bordercolor="#666666"
     borderopacity="1.0"
     inkscape:pageopacity="0.0"
     inkscape:pageshadow="2"
     inkscape:zoom="0.7"
     inkscape:cx="324.14134"
     inkscape:cy="288.40592"
     inkscape:document-units="mm"
     inkscape:current-layer="layer1"
     showgrid="false"
     units="px"
     inkscape:window-width="1920"
     inkscape:window-height="1017"
     inkscape:window-x="-8"
     inkscape:window-y="-8"
     inkscape:window-maximized="1" />
  <metadata
     id="metadata5">
    <rdf:RDF>
      <cc:Work
         rdf:about="">
        <dc:format>image/svg+xml</dc:format>
        <dc:type
           rdf:resource="http://purl.org/dc/dcmitype/StillImage" />
        <dc:title></dc:title>
      </cc:Work>
    </rdf:RDF>
  </metadata>
  <g
     inkscape:label="Capa 1"
     inkscape:groupmode="layer"
     id="layer1"
     transform="translate(0,-106.49998)">
    <path
       style="fill:#ffffff;stroke-width:0.3686277;fill-opacity:1"
       d="m 40.584535,296.55552 c -1.113142,-0.44673 -2.024446,-2.60592 -1.586272,-3.7584 0.594194,-1.56286 1.445905,-1.92817 4.947563,-2.1221 l 3.328128,-0.18431 6.339874,-19.72157 6.33987,-19.72159 -26.771502,-0.18431 c -26.5516958,-0.1828 -26.7836088,-0.19085 -28.2460138,-0.97997 -1.725352,-0.93101 -3.143185,-2.37503 -4.104978,-4.18082 -0.66112,-1.24127 -0.690845,-3.54038 -0.783763,-60.62298 -0.106235,-65.25975 -0.242004,-61.17054 2.126483,-64.04393 0.606398,-0.73565 1.890684,-1.7257 2.853969,-2.20008 l 1.751427,-0.86251 39.4985088,-0.10024 39.498506,-0.10024 0.128979,-4.7742 c 0.183692,-6.8001 -0.319101,-6.4529 9.34466,-6.4529 9.663766,0 9.160966,-0.3472 9.344656,6.4529 l 0.12903,4.7742 39.49851,0.10024 39.49852,0.10024 1.75142,0.86251 c 0.96329,0.47438 2.24757,1.46443 2.85397,2.20008 2.36848,2.87339 2.23271,-1.21582 2.12648,64.04393 -0.0928,57.0826 -0.12269,59.38171 -0.78375,60.62298 -0.9618,1.80579 -2.37964,3.24981 -4.10499,4.18082 -1.46241,0.78912 -1.69432,0.79717 -28.24601,0.97997 l -26.7715,0.18431 6.33987,19.72159 6.33987,19.72157 3.32812,0.18431 c 3.50167,0.19393 4.35337,0.55924 4.94757,2.1221 0.46293,1.2176 -0.48108,3.3145 -1.70098,3.77829 -1.43939,0.54726 -32.06609,0.48939 -33.1024,-0.0626 -1.94728,-1.03714 -2.34298,-3.41198 -0.82192,-4.93302 0.80078,-0.80078 1.22462,-0.90482 3.68626,-0.90482 1.89862,0 2.78148,-0.1387 2.78148,-0.43697 0,-0.24034 -1.39605,-4.76064 -3.10232,-10.04511 -1.70629,-5.28447 -4.53419,-14.04548 -6.28426,-19.46892 l -3.18192,-9.86078 H 95.249969 80.72433 l -3.181929,9.86078 c -1.750062,5.42344 -4.577974,14.18445 -6.284248,19.46892 -1.706277,5.28447 -3.102319,9.80477 -3.102319,10.04511 0,0.29827 0.882848,0.43697 2.781461,0.43697 2.461655,0 2.885499,0.10407 3.686276,0.90482 1.521052,1.52104 1.12536,3.89588 -0.821931,4.93302 -0.989901,0.52721 -31.910766,0.56694 -33.217105,0.0427 z M 67.65557,270.76914 c 3.505036,-10.84689 6.37853,-19.76306 6.385547,-19.81374 0.007,-0.0507 -1.638998,-0.0922 -3.657814,-0.0922 H 66.71273 l -3.305812,10.22941 c -8.080725,25.00477 -9.258938,28.71391 -9.258938,29.14812 0,0.34437 0.902271,0.43427 3.567406,0.35545 l 3.567404,-0.10552 z m 68.69266,19.4451 c -0.004,-0.56043 -12.36009,-38.93573 -12.61953,-39.19516 -0.10103,-0.10104 -1.7646,-0.13595 -3.69685,-0.0777 l -3.51317,0.10605 6.2273,19.35296 c 3.42501,10.64412 6.3064,19.5603 6.4031,19.81373 0.12361,0.32411 1.21804,0.46078 3.68934,0.46078 2.56708,0 3.51253,-0.12414 3.50981,-0.46078 z M 183.431,243.75402 c 0.62469,-0.62466 0.66314,-3.27924 0.75421,-52.06865 l 0.096,-51.41045 H 95.253781 6.2263792 v 50.84663 c 0,32.50531 0.131037,51.19127 0.363266,51.80209 0.199797,0.52551 0.738914,1.10692 1.19804,1.29204 0.497043,0.20041 36.0635018,0.30826 87.9099158,0.26658 83.046049,-0.0667 87.105599,-0.10051 87.733399,-0.72824 z M 16.55522,234.17013 c -1.871927,-0.94715 -1.839157,-0.43055 -1.84497,-29.08489 -0.0036,-17.65913 0.125187,-27.13721 0.377687,-27.80135 0.775424,-2.03953 -0.149227,-1.96496 24.52715,-1.97761 l 22.882815,-0.0119 0.893672,0.95112 0.893668,0.95114 0.110593,26.7881 c 0.07651,18.53029 -0.01307,27.21357 -0.290626,28.16831 -0.748057,2.57331 0.06623,2.49103 -24.59188,2.48495 -16.941166,-0.004 -22.255452,-0.11252 -22.958116,-0.46806 z m 41.558258,-29.2932 0.0949,-23.31571 H 39.589936 20.971488 v 23.16212 c 0,12.73915 0.112125,23.27422 0.249155,23.41126 0.137036,0.13703 8.47263,0.20615 18.523541,0.15359 l 18.274388,-0.0956 z m 14.055992,29.21388 c -1.717696,-0.93356 -1.845643,-1.85638 -1.72726,-12.45824 0.107886,-9.6622 0.123589,-9.83849 0.949356,-10.66366 l 0.839653,-0.83904 h 23.01875 23.018751 l 0.83966,0.83904 c 0.82576,0.82517 0.84145,1.00146 0.94935,10.66366 0.11939,10.68714 -0.005,11.54601 -1.80215,12.47549 -1.52496,0.78859 -44.633084,0.77245 -46.08611,-0.0173 z m 41.51189,-11.79622 v -5.89804 H 95.249969 76.818586 l -0.102447,5.51322 c -0.05635,3.03227 -0.0195,5.7294 0.08191,5.99364 0.148772,0.3877 3.725984,0.46197 18.533829,0.38482 l 18.349482,-0.0956 z m 14.11337,11.78112 c -0.6276,-0.34349 -1.15,-1.06084 -1.40196,-1.9251 -0.27423,-0.94064 -0.36617,-7.71131 -0.28985,-21.34616 l 0.11173,-19.96858 0.89366,-0.95104 0.89367,-0.95105 h 22.90547 c 22.50015,0 22.91966,0.0132 23.70776,0.74746 0.44126,0.4111 0.89308,1.11611 1.004,1.56667 0.11094,0.45056 0.15443,9.9797 0.0967,21.17586 l -0.10512,20.35663 -0.83949,0.83946 -0.83948,0.83944 -22.56838,0.082 c -19.37446,0.0704 -22.70994,0.004 -23.56873,-0.46555 z m 41.64536,-22.37917 0.096,-16.49609 h -18.61948 -18.61949 v 16.34249 c 0,8.98838 0.11212,16.45462 0.24916,16.59166 0.13703,0.13703 8.47262,0.20615 18.52353,0.15359 l 18.27439,-0.0956 z m -97.222087,-9.59249 c -1.881148,-0.96112 -1.854539,-0.55979 -1.757053,-26.50348 l 0.09096,-24.20774 0.89367,-0.9511 0.89367,-0.95112 h 22.910717 22.910723 l 0.89367,0.95127 0.89366,0.95127 v 24.65812 24.65812 l -0.83948,0.83966 -0.83949,0.83964 -22.56837,0.0913 c -17.638146,0.0713 -22.768113,-0.0106 -23.482678,-0.37589 z m 41.558657,-26.16439 0.0953,-20.18237 H 95.253117 76.634269 v 20.02877 c 0,11.01583 0.112125,20.14089 0.249155,20.27792 0.137039,0.13705 8.472633,0.20616 18.523543,0.1536 l 18.274393,-0.0956 z m 14.17264,5.23972 c -1.8267,-0.74246 -1.9537,-1.87311 -1.83983,-16.38086 l 0.10526,-13.4062 0.89366,-0.95085 0.89367,-0.95086 h 22.90547 c 22.38081,0 22.92356,0.0169 23.69525,0.7358 0.43438,0.4047 0.88876,1.27558 1.00972,1.9353 0.12098,0.65972 0.17008,7.12537 0.10909,14.36811 -0.11054,13.14213 -0.11252,13.17029 -0.95029,14.00784 l -0.83949,0.83925 -22.56837,0.0732 c -13.29359,0.0431 -22.91597,-0.0681 -23.41417,-0.27066 z m 41.49311,-15.74562 0.0983,-9.67647 h -18.62187 -18.62181 v 9.52288 c 0,5.23759 0.11212,9.635 0.24915,9.77203 0.13704,0.13704 8.47263,0.20616 18.52354,0.1536 l 18.27439,-0.0956 z m -129.562235,0.23697 c -2.316736,-0.6699 -3.026216,-3.15411 -1.430423,-5.00857 l 0.890014,-1.03428 h 7.067656 7.067654 l 0.889391,1.03428 c 1.581417,1.83905 0.776777,4.36896 -1.59943,5.02886 -1.685621,0.46812 -11.247835,0.45307 -12.884862,-0.0204 z m -19.46163,-0.21538 c -1.392097,-0.29168 -3.670891,-2.16733 -4.746099,-3.90643 -1.988435,-3.21622 -1.674903,-7.351 0.77439,-10.21244 1.890334,-2.20843 3.841306,-3.10879 6.736417,-3.10879 2.739954,0 4.612755,0.80295 6.52446,2.79729 4.131871,4.3105 2.483683,11.84714 -3.102814,14.18818 -1.104899,0.46301 -4.498453,0.59587 -6.186354,0.24219 z m 4.607848,-6.74903 c 1.550412,-1.55042 0.391278,-4.17779 -1.84314,-4.17779 -0.825595,0 -1.440832,0.27176 -1.900582,0.83953 -0.880958,1.08793 -0.858785,1.90542 0.08419,3.10422 0.934752,1.18836 2.59879,1.29476 3.659523,0.23404 z m 13.667508,-3.90336 c -1.465718,-1.23333 -1.561569,-3.07531 -0.229352,-4.40753 l 0.904811,-0.90482 h 11.190391 c 10.731773,0 11.223276,0.0306 11.992695,0.74746 1.104723,1.0292 1.411644,2.49243 0.764609,3.64521 -0.996442,1.77528 -1.60124,1.86276 -12.919224,1.86857 l -10.569765,0.005 z M 184.19618,130.34187 c 0.12547,-4.08239 -0.27105,-5.34164 -1.85558,-5.89401 -1.57042,-0.54745 -172.5951308,-0.55293 -174.1652638,-0.005 -0.610545,0.21282 -1.298827,0.80122 -1.529519,1.30753 -0.445971,0.9788 -0.588808,7.59756 -0.172934,8.01344 0.135578,0.13557 40.1547228,0.20469 88.9314358,0.1536 l 88.684931,-0.0928 z M 98.307988,115.3004 98.198993,112.81217 h -2.949019 -2.949022 l -0.108995,2.48823 -0.108995,2.48824 h 3.16702 3.16702 z"
       id="path865"
       inkscape:connector-curvature="0" />
  </g>
</svg>
